# xmcd
#
# Track frame offsets: 
#        150
#        24803
#        42550
#        64415
#        85528
#        104973
#        126932
#        148650
#        171430
#        185586
#
# Disc length: 2777 seconds
#
# Revision: 0
# Processed by: cddbd v1.5.2PL0 Copyright (c) Steve Scherf et al.
# Submitted via: ExactAudioCopyFreeDBPlugin 1.0
#
DISCID=930ad70a
DTITLE=Eric Ramsey - Wills and Won'ts
DYEAR=2014
DGENRE=Blues
TTITLE0=Will I Ever Be Dry Again
TTITLE1=Mr. Fixit
TTITLE2=Hard Fall
TTITLE3=My Baby Loves Me
TTITLE4=In Your Eyes
TTITLE5=Hard Luck
TTITLE6=Our Flag Decals Still Won't Get Us Into Heaven
TTITLE7=How Can A Poor Man Stand Such Times And Live
TTITLE8=Wills And Won'ts
TTITLE9=It's All Right
EXTD=
EXTT0=
EXTT1=
EXTT2=
EXTT3=
EXTT4=
EXTT5=
EXTT6=
EXTT7=
EXTT8=
EXTT9=
PLAYORDER=
